# xmcd
#
# Track frame offsets:
#	150
#	22535
#	39815
#	60545
#	98835
#	131120
#	153805
#	204050
#
# Disc length: 3072 seconds
#
# Revision: 1
# Processed by: cddbd v1.5.1PL2 Copyright (c) Steve Scherf et al.
# Submitted via: EasyCDDAExtractor 9.0.0.1
#
DISCID=4e0bfe08
DTITLE=Saxon - Astoria London 23-04-06 Disc 2
DYEAR=2006
DGENRE=Hard Rock
TTITLE0=20 000 Feet
TTITLE1=Stand Up And Be Counted
TTITLE2=Princess Of The Night
TTITLE3=The Return - Lionheart
TTITLE4=747 (Strangers In The Night)
TTITLE5=Heavy Metal Thunder
TTITLE6=Wheels Of Steel
TTITLE7=Denim and Leather
EXTD=
EXTT0=
EXTT1=
EXTT2=
EXTT3=
EXTT4=
EXTT5=
EXTT6=
EXTT7=
PLAYORDER=
